/* XPM */
static char *icon[] = {
/* columns rows colors chars-per-pixel */
"32 32 16 1",
"  c #010000",
". c #0B0000",
"X c #160000",
"o c #230000",
"O c #320000",
"+ c #440000",
"@ c #5E0000",
"# c #611509",
"$ c #762311",
"% c #800200",
"& c #B30200",
"* c #962814",
"= c #EC0501",
"- c #BF4326",
"; c #F46F43",
": c #FFA064",
/* pixels */
"OO+@+@@%@@@@++@%%@@OOoOO+o.   XO",
"o++--%@@@@+++++@%%%@OOOO.o+$#. O",
"OO+*:#o+++OOoo@#%%%@+OOOX$#*%+ +",
"   O$-$oOOOO@&;-+@%@+++O$*%%%@XO",
"XoXO&--$oXX+==:- +%@+++--&%%@@ +",
"OXXo%&-;*o .+#-$ XXoOO-;&&%@+O o",
"oOX @%&-;;;;=%--  .X$*;-=%%@OO .",
"X+oXX@&&&--;===-@@O%-;-=&%@+X. .",
"XOOOo@%==&+-:====%@-;&==&%@+o. O",
"o+@@+O@&&=&&::&&&%%%&====%@+OXoO",
"O@@@@+@&&==&::;-*+%%==&=&%@@+OO+",
"@@%@@+@&&==&-:--*%%%===&%@@@@@++",
"@@@++O+@&===%;-*%&%&=&&@OO+@+++X",
"O+++Ooo+%%&=&:;$%+@&&&+XoooXoOX.",
"X++OoX..o@&=%&-#OO+%%@OOOOOooXXo",
"XOOoXXXX.o%&&%@+oo@&@Oo++++++OOo",
".ooooooX..O&==&%@o@&+OO+@@++++OX",
".XOoOooXXXO%@&=&&#X@+O+@@+@++OX.",
"XXO+OOoXXXoX#&&&&$OOOO+@@+++OO  ",
"XO+++OooXoOO#%&&%$OoOO++++OOOO  ",
"+@+++OOooooo$%%%*$+XooO++OOOOo  ",
"O++++OOOXXXo#$@+*$o .XoOO+OOo.  ",
"XO++OOoo.. .##@O-*o  .XoOO+Oo.  ",
".+OoOooX    O$+O*%+X.  XoO+OO.  ",
"OOXoooX     o#Xo*%@+OX..XOOOO.  ",
"OOXXooX     .o.X$%+O+OoXXXXoo.  ",
"O+X.oOX.    .OO.+@oXOOOoXXXooX  ",
"++ oOOo...   OO oO  .oOOoXX.XX  ",
"+XXOOOX..     o o.    XooXX...  ",
"oXoOoX.       . X       .X..    ",
" XXX.        .O.X               ",
" ..                             "
};
